<?xml version="1.0" standalone="no"?><!DOCTYPE svg PUBLIC "-//W3C//DTD SVG 1.1//EN" "http://www.w3.org/Graphics/SVG/1.1/DTD/svg11.dtd"><svg t="1721467292071" class="icon" viewBox="0 0 1024 1024" version="1.1" xmlns="http://www.w3.org/2000/svg" p-id="46916" xmlns:xlink="http://www.w3.org/1999/xlink" width="16" height="16"><path d="M0 512a512 512 0 1 0 1024 0A512 512 0 0 0 0 512z" fill="#E84142" p-id="46917"></path><path d="M542.663111 152.007111c-17.749333-30.663111-45.966222-30.663111-63.715555 0l-322.104889 567.182222c-17.749333 31.061333-3.242667 55.694222 32.256 55.694223h161.621333a102.4 102.4 0 0 0 79.872-46.819556l194.673778-337.408a105.984 105.984 0 0 0 0-92.330667l-58.026667-102.001777-24.576-44.373334z m214.072889 373.304889c-17.749333-30.663111-46.364444-30.663111-64.113778 0l-112.469333 193.934222c-17.351111 30.606222-2.844444 55.637333 32.256 55.637334h222.492444c35.498667 0 50.062222-25.031111 32.256-55.637334l-110.421333-193.991111v0.056889z" fill="#FFFFFF" p-id="46918"></path></svg>