<?xml version="1.0" standalone="no"?><!DOCTYPE svg PUBLIC "-//W3C//DTD SVG 1.1//EN" "http://www.w3.org/Graphics/SVG/1.1/DTD/svg11.dtd"><svg t="1721467191816" class="icon" viewBox="0 0 1024 1024" version="1.1" xmlns="http://www.w3.org/2000/svg" p-id="45895" xmlns:xlink="http://www.w3.org/1999/xlink" width="16" height="16"><path d="M512.000055 0.00011A511.999945 511.999945 0 1 1 0.00011 512.000055 511.66891 511.66891 0 0 1 512.000055 0.00011z" fill="#F9B800" p-id="45896"></path><path d="M219.03457 512.000055L131.862165 425.379375 45.241485 512.000055l86.62068 86.62068 87.172405-86.62068zM605.241424 506.482814L518.06902 419.862134 431.44834 506.482814l86.62068 86.620681 87.172404-86.620681zM991.448279 517.517296l-87.172404-86.62068-86.62068 86.62068 86.62068 86.62068 87.172404-86.62068z" fill="#FFFFFF" p-id="45897"></path><path d="M505.379366 232.275947l195.862048 195.862048 93.793093-93.793093L505.379366 44.689761 216.275949 334.344902l93.793093 93.793093 195.310324-195.862048zM522.482813 797.793128l-195.862048-195.862048-93.793094 93.793093 289.655142 289.655142 289.103417-289.655142-93.793094-93.793093-195.310323 195.862048z" fill="#FFFFFF" p-id="45898"></path></svg>