<?xml version="1.0" standalone="no"?><!DOCTYPE svg PUBLIC "-//W3C//DTD SVG 1.1//EN" "http://www.w3.org/Graphics/SVG/1.1/DTD/svg11.dtd"><svg t="1721460839149" class="icon" viewBox="0 0 1024 1024" version="1.1" xmlns="http://www.w3.org/2000/svg" p-id="28389" xmlns:xlink="http://www.w3.org/1999/xlink" width="48" height="48"><path d="M64 640c0-249.6 198.4-448 448-448s448 198.4 448 448h-64c0-211.2-172.8-384-384-384s-384 172.8-384 384H64z m256 0c0-108.8 83.2-192 192-192s192 83.2 192 192-83.2 192-192 192-192-83.2-192-192z m64 0c0 70.4 57.6 128 128 128s128-57.6 128-128-57.6-128-128-128-128 57.6-128 128z" fill="#1296db" p-id="28390"></path></svg>