<?xml version="1.0" standalone="no"?><!DOCTYPE svg PUBLIC "-//W3C//DTD SVG 1.1//EN" "http://www.w3.org/Graphics/SVG/1.1/DTD/svg11.dtd"><svg t="1721458742357" class="icon" viewBox="0 0 1228 1024" version="1.1" xmlns="http://www.w3.org/2000/svg" p-id="6517" width="57.5625" height="48" xmlns:xlink="http://www.w3.org/1999/xlink"><path d="M1097.488372 22.135545l8.703695 2.355118c88.060918 24.063158 140.539081 116.629518 116.936708 206.431175-23.653572 89.750459-114.479193 143.201388-202.59131 119.13823l-7.935722-2.150325a656.412226 656.412226 0 0 0-214.725285-22.168824 638.441655 638.441655 0 0 0-201.260155 45.975991C476.249315 420.86719 374.262485 506.57299 307.192832 614.396416c1.894334-47.102351 8.959686-93.948712 20.991266-139.617513 43.364882-165.165419 147.297245-303.195788 292.597759-388.696796A613.815316 613.815316 0 0 1 1097.488372 22.033149" p-id="6518" fill="#ffffff"></path><path d="M122.572094 999.509337C34.511176 975.446179-17.915789 882.879819 5.635387 793.078162c23.653572-89.750459 114.479193-143.201388 202.591309-119.13823l7.935722 2.150325c70.602329 19.250526 142.843 26.725465 214.725285 22.168824a638.441655 638.441655 0 0 0 201.260156-45.975991C752.514846 603.13281 854.501677 517.42701 921.571329 409.603584c-1.894334 47.102351-8.959686 93.948712-20.991265 139.617513-43.364882 165.165419-147.297245 303.195788-292.597759 388.696796a613.815316 613.815316 0 0 1-476.706516 63.99776l-8.703695-2.406316z" p-id="6519" fill="#ffffff"></path></svg>