<?xml version="1.0" standalone="no"?><!DOCTYPE svg PUBLIC "-//W3C//DTD SVG 1.1//EN" "http://www.w3.org/Graphics/SVG/1.1/DTD/svg11.dtd"><svg t="1721706614794" class="icon" viewBox="0 0 1024 1024" version="1.1" xmlns="http://www.w3.org/2000/svg" p-id="44230" xmlns:xlink="http://www.w3.org/1999/xlink" width="32" height="32"><path d="M644.48 261.44L701.76 32h-384l57.28 228.8C175.68 324.16 29.76 521.28 29.76 716.16c0 152.32 88.96 235.52 224 275.84h512c133.76-40.32 224-123.52 224-275.84-2.24-194.24-147.2-390.72-345.28-454.72zM544 810.24V832a48 48 0 0 1-96 0v-25.28a314.24 314.24 0 0 1-64-19.84 48.64 48.64 0 0 1 17.28-93.76 429.76 429.76 0 0 0 106.88 22.4c58.88 0 58.88-20.48 58.88-29.44 0-15.04-40.96-21.12-64-27.2-57.92-14.72-145.6-37.12-145.6-128A125.76 125.76 0 0 1 448 412.8V384a48 48 0 0 1 96 0v20.48a293.44 293.44 0 0 1 74.88 16.32 48.32 48.32 0 0 1-15.36 93.76 384 384 0 0 0-87.36-15.36c-27.84 0-60.48 7.68-60.48 28.8 0 14.4 19.84 21.44 67.2 32 56.64 13.44 142.4 34.24 142.4 128-0.32 64.64-48.64 112-121.28 122.24z" fill="#bfbfbf" p-id="44231"></path></svg>