<?xml version="1.0" standalone="no"?><!DOCTYPE svg PUBLIC "-//W3C//DTD SVG 1.1//EN" "http://www.w3.org/Graphics/SVG/1.1/DTD/svg11.dtd"><svg t="1721459349749" class="icon" viewBox="0 0 1068 1024" version="1.1" xmlns="http://www.w3.org/2000/svg" p-id="16812" xmlns:xlink="http://www.w3.org/1999/xlink" width="50.0625" height="48"><path d="M859.091478 131.784348c210.854957 170.74087 245.938087 478.163478 80.985044 691.734261l-43.364174-73.193739c26.089739-32.189217 23.106783-32.946087 38.288695-69.36487 69.943652-168.20313 24.620522-369.085217-124.17113-489.605565a420.196174 420.196174 0 0 0-310.628174-91.536696 422.822957 422.822957 0 0 0-136.637217 38.689391l-14.202435 7.123479-35.617391-67.940174A499.177739 499.177739 0 0 1 491.965217 23.596522a496.862609 496.862609 0 0 1 367.126261 108.187826z" fill="#1296db" p-id="16813"></path><path d="M934.422261 861.94087l-86.194087-134.144h168.559304z" fill="#1296db" p-id="16814"></path><path d="M241.574957 892.215652C30.72 721.474783-4.318609 414.052174 160.634435 200.481391l43.319652 73.193739c-26.045217 32.189217-23.106783 32.946087-38.288696 69.36487-69.943652 168.20313-24.620522 369.085217 124.215652 489.605565a420.196174 420.196174 0 0 0 310.583653 91.536696 422.822957 422.822957 0 0 0 136.637217-38.689391l14.202435-7.123479 35.617391 67.940174a499.177739 499.177739 0 0 1-178.220522 54.093913 496.862609 496.862609 0 0 1-367.12626-108.187826z" fill="#1296db" p-id="16815"></path><path d="M166.244174 162.05913L252.438261 296.20313H83.878957z" fill="#1296db" p-id="16816"></path><path d="M543.031652 692.580174c19.945739 0 41.405217-1.558261 64.556522-4.674783a227.951304 227.951304 0 0 0 64.467478-18.253913 141.089391 141.089391 0 0 0 49.90887-37.264695c13.356522-15.760696 20.034783-36.062609 20.034782-60.90574 0-21.504-4.229565-38.956522-12.733217-52.313043-8.45913-13.356522-19.678609-24.041739-33.52487-31.922087a158.586435 158.586435 0 0 0-47.37113-17.185391 449.669565 449.669565 0 0 0-54.316522-7.524174 2302.352696 2302.352696 0 0 0-54.316522-3.561739 320.512 320.512 0 0 1-47.326608-5.787826c-13.846261-2.80487-25.021217-7.123478-33.52487-12.866783-8.503652-5.743304-12.777739-14.336-12.777739-25.822609 0-8.102957 3.027478-14.914783 9.126957-20.390956a68.563478 68.563478 0 0 1 22.928695-13.267478c9.260522-3.33913 19.589565-5.832348 30.987131-7.524174a230.177391 230.177391 0 0 1 75.419826 1.424695c14.113391 2.671304 27.247304 6.099478 39.401739 10.418087 12.109913 4.274087 22.706087 9.171478 31.699478 14.692174 8.993391 5.476174 15.404522 11.130435 19.322435 16.829218 2.893913 4.318609 4.85287 9.794783 5.787826 16.473043l7.301565 2.893913 50.309565-89.577739-8.770782-5.787826c-2.893913 2.893913-7.746783 4.318609-14.558609 4.318609-6.322087 0-14.246957-1.869913-23.685565-5.698783a460.221217 460.221217 0 0 0-34.994087-12.198957 504.431304 504.431304 0 0 0-49.196522-12.198956 343.173565 343.173565 0 0 0-67.049739-5.698783c-30.141217 0-56.364522 3.472696-78.714435 10.373565-22.349913 6.945391-40.826435 15.894261-55.385043 26.891131-14.60313 10.952348-25.377391 23.596522-32.456348 37.977043-7.034435 14.336-10.551652 28.894609-10.551652 43.720348 0 21.949217 4.229565 39.757913 12.733217 53.381565a93.495652 93.495652 0 0 0 33.52487 32.23374c13.846261 7.880348 29.651478 13.490087 47.37113 16.829217 17.764174 3.33913 35.84 5.743304 54.316522 7.168 18.476522 1.424696 36.552348 2.537739 54.316522 3.250087a368.64 368.64 0 0 1 47.37113 4.630261c13.801739 2.404174 25.021217 6.233043 33.52487 11.486608 8.45913 5.253565 12.733217 13.356522 12.733217 24.353392a31.209739 31.209739 0 0 1-13.801739 26.534956c-9.260522 6.678261-20.21287 11.931826-32.812522 15.760696a193.714087 193.714087 0 0 1-38.644869 7.524174c-13.133913 1.157565-23.81913 1.78087-32.055652 1.780869-11.174957 0-23.81913-1.335652-37.932522-3.962434a302.881391 302.881391 0 0 1-40.425739-10.373566 206.135652 206.135652 0 0 1-34.281739-14.692173c-9.928348-5.476174-16.606609-11.130435-20.034783-16.829218a22.394435 22.394435 0 0 1-2.893913-11.486609l-7.301565-3.561739-40.069566 86.683826 10.195479 5.787826c2.893913-3.873391 6.054957-5.787826 9.48313-5.787826 5.342609 0 11.664696 1.78087 18.921739 5.387131a263.657739 263.657739 0 0 0 76.132174 23.641043c18.743652 3.116522 41.939478 4.674783 69.632 4.674783z" fill="#1296db" p-id="16817"></path><path d="M601.84487 243.622957v115.044173h-76.666435V243.622957zM601.84487 646.188522v114.999652h-76.666435v-114.999652z" fill="#1296db" p-id="16818"></path></svg>