<?xml version="1.0" standalone="no"?><!DOCTYPE svg PUBLIC "-//W3C//DTD SVG 1.1//EN" "http://www.w3.org/Graphics/SVG/1.1/DTD/svg11.dtd"><svg t="1722168191146" class="icon" viewBox="0 0 1063 1024" version="1.1" xmlns="http://www.w3.org/2000/svg" p-id="5650" xmlns:xlink="http://www.w3.org/1999/xlink" width="16.609375" height="16"><path d="M522.633846 1024c282.781538 0 512-229.218462 512-512s-229.218462-512-512-512-512 229.218462-512 512 229.218462 512 512 512z" fill="#0052FF" p-id="5651"></path><path d="M162.619077 512a359.975385 359.975385 0 1 0 719.990154 0A359.975385 359.975385 0 0 0 162.658462 512z m268.012308-115.987692h183.965538a24.024615 24.024615 0 0 1 24.024615 24.024615v183.926154a24.024615 24.024615 0 0 1-24.024615 24.024615h-183.965538a24.024615 24.024615 0 0 1-24.024616-24.024615v-183.926154a24.024615 24.024615 0 0 1 24.024616-24.024615z" fill="#FFFFFF" p-id="5652"></path></svg>