<?xml version="1.0" standalone="no"?><!DOCTYPE svg PUBLIC "-//W3C//DTD SVG 1.1//EN" "http://www.w3.org/Graphics/SVG/1.1/DTD/svg11.dtd"><svg t="1722168111394" class="icon" viewBox="0 0 1660 1024" version="1.1" xmlns="http://www.w3.org/2000/svg" p-id="4643" xmlns:xlink="http://www.w3.org/1999/xlink" width="25.9375" height="16"><path d="M360.89243281 238.38054013c237.94054013-232.96864834 623.73405411-232.96864834 861.67945899 0l28.63459511 28.04108115a29.38864834 29.38864834 0 0 1 0 42.17837872l-97.95891972 95.91567539a15.46540576 15.46540576 0 0 1-21.5416213 0l-39.4102705-38.58324258c-165.99891885-162.52540576-435.13297295-162.52540576-601.1318918 0l-42.20270244 41.32216143a15.46540576 15.46540576 0 0 1-21.54162128 0L329.46054013 311.33891885a29.38864834 29.38864834 0 0 1 0-42.17837872l31.42702706-30.78zM1425.16432461 436.74054013l87.1881082 85.36378448a29.38864834 29.38864834 0 0 1 0 42.17837783l-393.12973037 384.91783769c-11.89945987 11.64648691-31.18378359 11.64648691-43.08324257 0l-279.01945987-273.18648602a7.73513526 7.73513526 0 0 0-10.77081065-1e-8L507.32972949 949.20540576c-11.89945987 11.64648691-31.18864834 11.64648691-43.08810821 0L71.10702705 564.28270244a29.38864834 29.38864834 0 0 1 0-42.18324257l87.18810821-85.36378448c11.89459424-11.64648691 31.18378359-11.64648691 43.08324346 0l279.02432372 273.18648691a7.73513526 7.73513526 0 0 0 10.77081065 1e-8L770.17837871 436.74054013c11.89945987-11.64648691 31.18378359-11.65135166 43.08324257 0l279.02432461 273.18648692a7.73513526 7.73513526 0 0 0 10.77081065 0L1382.08108115 436.74054013c11.89945987-11.64648691 31.18378359-11.64648691 43.08324346 0z" fill="#3B99FC" p-id="4644"></path></svg>